# AST/ASF file generated using VICON BodyLanguage
# -----------------------------------------------
:version 1.10
:name VICON
:units
  mass 1.0
  length 0.45
  angle deg
:documentation
   .ast/.asf automatically generated from VICON data using
   VICON BodyBuilder and BodyLanguage model FoxedUp or BRILLIANT.MOD
:root
   order TX TY TZ RX RY RZ
   axis XYZ
   position 0 0 0  
   orientation 0 0 0 
:bonedata
  begin
     id 1 
     name lhipjoint
     direction 0.521452 -0.77106 0.36545 
     length 2.0933 
     axis 0 0 0  XYZ
  end
  begin
     id 2 
     name lfemur
     direction 0.34202 -0.939693 0  
     length 6.83441  
     axis 0 0 20  XYZ
    dof rx ry rz
    limits (-160.0 20.0)
           (-70.0 70.0)
           (-60.0 70.0)
  end
  begin
     id 3 
     name ltibia
     direction 0.34202 -0.939693 0   
     length 7.28749   
     axis 0 0 20   XYZ
    dof rx
    limits (-10.0 170.0)
  end
  begin
     id 4 
     name lfoot
     direction 0.100608 -0.276418 0.955757   
     length 1.52195   
     axis -90 7.62852e-016 20   XYZ
    dof rx rz
    limits (-45.0 90.0)
           (-70.0 20.0)
  end
  begin
     id 5 
     name ltoes
     direction 1.53558e-011 -4.21907e-011 1   
     length 0.770459   
     axis -90 7.62852e-016 20   XYZ
    dof rx
    limits (-90.0 20.0)
  end
  begin
     id 6 
     name rhipjoint
     direction -0.488071 -0.788702 0.373812   
     length 2.04648  
     axis 0 0 0  XYZ 
  end
  begin
     id 7 
     name rfemur
     direction -0.34202 -0.939693 0   
     length 6.92583   
     axis 0 0 -20   XYZ
    dof rx ry rz
    limits (-160.0 20.0)
           (-70.0 70.0)
           (-70.0 60.0)
  end
  begin
     id 8 
     name rtibia
     direction -0.34202 -0.939693 0   
     length 7.41043   
     axis 0 0 -20   XYZ
    dof rx
    limits (-10.0 170.0)
 end
 begin
     id 9 
     name rfoot
     direction -0.0784433 -0.215521 0.973343   
     length 1.67708  
     axis -90 -7.62852e-016 -20   XYZ
    dof rx rz
    limits (-45.0 90.0)
           (-20.0 70.0)
  end
  begin
     id 10 
     name rtoes
     direction -1.53551e-011 -4.21842e-011 1   
     length 0.849787   
     axis -90 -7.62852e-016 -20   XYZ
    dof rx
    limits (-90.0 20.0)
  end
  begin
     id 11 
     name lowerback
     direction -0.0122332 0.997575 -0.0685192   
     length 1.98724   
     axis 0 0 0   XYZ
    dof rx ry rz
    limits (-20.0 45.0)
           (-30.0 30.0)
           (-30.0 30.0)
  end
  begin
     id 12 
     name upperback
     direction 0.0182347 0.999724 -0.0148421   
     length 1.99029   
     axis 0 0 0   XYZ
    dof rx ry rz
    limits (-20.0 45.0)
           (-30.0 30.0)
           (-30.0 30.0)
  end
  begin
     id 13 
     name thorax
     direction 0.0242908 0.99956 0.0170184   
     length 1.99573   
     axis 0 0 0   XYZ
    dof rx ry rz
    limits (-20.0 45.0)
           (-30.0 30.0)
           (-30.0 30.0)
  end
  begin
     id 14 
     name lowerneck
     direction 0.0654488 0.985533 0.156338   
     length 1.4285   
     axis 0 0 0   XYZ
    dof rx ry rz
    limits (-20.0 45.0)
           (-30.0 30.0)
           (-30.0 30.0)
  end
  begin
     id 15 
     name upperneck
     direction -0.02953 0.998556 -0.0448842   
     length 1.44709   
     axis 0 0 0   XYZ
    dof rx ry rz
    limits (-20.0 45.0)
           (-30.0 30.0)
           (-30.0 30.0)
  end
  begin
     id 16
     name head
     direction -0.0155588 0.999386 -0.0314063  
     length 1.44689  
     axis 0 0 0   XYZ
    dof rx ry rz
    limits (-20.0 45.0)
           (-30.0 30.0)
           (-30.0 30.0)
  end
  begin
     id 17 
     name lclavicle
     direction 0.968229 0.236071 -0.0824755  
     length 3.60593  
     axis 0 0 0   XYZ
    dof ry rz
    limits (-20.0 10.0)
           (0.0 20.0)
  end
  begin
     id 18 
     name lhumerus
     direction 1 -4.48968e-011 7.8138e-029   
     length 5.06035   
     axis 180 -30 -90   XYZ
    dof rx ry rz
    limits (-60.0 90.0)
           (-90.0 90.0)
           (-90.0 90.0)
  end
  begin
     id 19
     name lradius
     direction 1 -4.48967e-011 9.02887e-028   
     length 3.1478   
     axis 180 -30 -90   XYZ
    dof rx
    limits (-10.0 170.0)
  end
  begin
     id 20
     name lwrist
     direction 1 -4.48961e-011 7.20928e-028   
     length 1.5739   
     axis -5.52449e-016 90 90   XYZ
    dof ry
    limits (-180.0 0.0)
 end
  begin
     id 21 
     name lhand
     direction 1 -4.48972e-011 1.44186e-027   
     length 0.606747   
     axis -9.20027e-016 90 90   XYZ
    dof rx rz
    limits (-90.0 90.0)
           (-45.0 45.0)
  end
  begin
     id 22 
     name lfingers
     direction 1 -4.48943e-011 2.88371e-027   
     length 0.489175   
     axis -1.84005e-015 90 90   XYZ
    dof rx
    limits (0.0 90.0)
  end
  begin
     id 23
     name lthumb
     direction 0.707107 -6.34917e-011 0.707107   
     length 0.70236   
     axis -90 45 2.85299e-015   XYZ
    dof rx rz
    limits (-45.0 45.0)
           (-45.0 45.0)
  end
  begin
     id 24 
     name rclavicle
     direction -0.978165 0.207816 0.0022268   
     length 3.35425  
     axis 0 0 0   XYZ 
    dof ry rz
    limits (-10.0 20.0)
           (-20.0 0.0)
  end
  begin
     id 25 
     name rhumerus
     direction -1 -4.48964e-011 -4.02159e-027  
     length 5.12273   
     axis 180 30 90   XYZ
    dof rx ry rz
    limits (-90.0 60.0)
           (-90.0 90.0)
           (-90.0 90.0)
  end
  begin
     id 26 
     name rradius
     direction -1 -4.48966e-011 1.62746e-027   
     length 3.422   
     axis 180 30 90   XYZ
    dof rx
    limits (-10.0 170.0)
  end
  begin
     id 27 
     name rwrist
     direction -1 -4.4896e-011 7.20928e-028   
     length 1.711   
     axis -5.52449e-016 -90 -90   XYZ
    dof ry
    limits (-180.0 0.0)
  end
  begin
     id 28
     name rhand
     direction -1 -4.48979e-011 1.44186e-027   
     length 0.704599   
     axis -9.20027e-016 -90 -90   XYZ
    dof rx rz
    limits (-90.0 90.0)
           (-45.0 45.0)
  end
  begin
     id 29
     name rfingers
     direction -1 -4.48962e-011 2.88371e-027   
     length 0.568066   
     axis -1.84005e-015 -90 -90   XYZ
    dof rx
    limits (0.0 90.0)
  end
  begin
     id 30
     name rthumb
     direction -0.707107 -6.34949e-011 0.707107   
     length 0.815633   
     axis -90 -45 -2.85299e-015   XYZ
    dof rx rz
    limits (-45.0 45.0)
           (-45.0 45.0)
  end
:hierarchy
  begin
    root lhipjoint rhipjoint lowerback
    lhipjoint lfemur
    lfemur ltibia
    ltibia lfoot
    lfoot ltoes
    rhipjoint rfemur
    rfemur rtibia
    rtibia rfoot
    rfoot rtoes
    lowerback upperback
    upperback thorax
    thorax lowerneck lclavicle rclavicle
    lowerneck upperneck
    upperneck head
    lclavicle lhumerus
    lhumerus lradius
    lradius lwrist
    lwrist lhand lthumb
    lhand lfingers
    rclavicle rhumerus
    rhumerus rradius
    rradius rwrist
    rwrist rhand rthumb
    rhand rfingers
  end

#!OML:ASF E:\id_vita\Project 1\Capture day 1\Session 1\Male1.ASF
:FULLY-SPECIFIED
:DEGREES
196
root -16.061 16.0597 2.61681 -170.474 72.4842 -177.075
lowerback -1.05115 -1.36004 -3.51085
upperback 4.3303 -1.7045 2.26803
thorax 5.25864 -1.01373 4.23674
lowerneck -10.0586 -7.16111 0.881723
upperneck 35.9515 -11.3112 6.71061
head 14.4528 -3.24359 1.05111
rclavicle 1.28713e-014 1.05356e-014
rhumerus -20.5832 -10.0163 -81.4315
rradius 25.069
rwrist 5.22522
rhand -18.9212 31.4097
rfingers 7.12502
rthumb 7.38118 1.55841
lclavicle 1.28713e-014 1.05356e-014
lhumerus -52.5142 48.2935 47.3786
lradius 10.5707
lwrist -29.0054
lhand -9.71278 39.369
lfingers 7.12502
lthumb 16.2602 68.7072
rfemur 2.40478 12.1072 27.0308
rtibia 11.4399
rfoot -18.5258 -2.97314
rtoes 3.71009
lfemur -35.5715 -2.35541 -20.3704
ltibia 36.531
lfoot -20.7231 -13.0062
ltoes -1.55914
197
root -15.9649 16.0608 2.60123 -170.418 72.8227 -176.933
lowerback -1.06474 -1.3784 -3.45076
upperback 4.39424 -1.7254 2.15744
thorax 5.32944 -1.02113 4.08484
lowerneck -9.91899 -6.96446 0.821286
upperneck 35.8728 -11.0521 6.88341
head 14.3913 -3.12827 1.17458
rclavicle 2.20154e-014 -6.16232e-015
rhumerus -20.4615 -10.1065 -81.6666
rradius 25.0711
rwrist 5.34181
rhand -19.0126 31.1586
rfingers 7.12502
rthumb 7.29296 1.30429
lclavicle 2.20154e-014 -6.16232e-015
lhumerus -52.9086 48.0913 46.9427
lradius 10.8767
lwrist -28.3773
lhand -9.46841 39.6179
lfingers 7.12502
lthumb 16.4955 68.9367
rfemur 3.80874 11.9757 27.1679
rtibia 9.58782
rfoot -17.9711 -2.22066
rtoes 5.13643
lfemur -35.6154 -2.63556 -20.3467
ltibia 34.7932
lfoot -20.2896 -13.4005
ltoes -2.39858
198
root -15.891 16.0657 2.57804 -168.909 74.1021 -175.936
lowerback -1.40817 -1.03535 -3.36458
upperback 4.19156 -1.27221 2.19884
thorax 5.26511 -0.792166 4.10277
lowerneck -9.80666 -6.90888 0.77415
upperneck 35.929 -10.8998 6.7282
head 14.3727 -3.09063 1.14736
rclavicle 2.54941e-014 -2.5842e-015
rhumerus -20.4234 -9.92657 -81.6188
rradius 25.0825
rwrist 5.27273
rhand -19.3052 31.0517
rfingers 7.12502
rthumb 7.01058 1.18779
lclavicle 2.54941e-014 -2.5842e-015
lhumerus -53.3511 47.8171 46.7927
lradius 11.1864
lwrist -27.7939
lhand -9.42395 39.7495
lfingers 7.12502
lthumb 16.5383 69.0647
rfemur 4.51627 12.8888 27.0807
rtibia 7.33768
rfoot -16.9863 -1.32768
rtoes 5.48195
lfemur -36.3587 -2.61423 -20.0189
ltibia 33.1537
lfoot -19.6435 -12.7745
ltoes -3.34569
199
root -15.7938 16.0604 2.56519 -169.238 74.2697 -176.173
lowerback -1.32133 -1.12237 -3.51891
upperback 4.24127 -1.38077 2.12878
thorax 5.28149 -0.851832 4.11088
lowerneck -9.60033 -6.83413 0.798796
upperneck 35.8344 -10.7467 6.62326
head 14.2625 -3.05154 1.12778
rclavicle -3.65267e-014 2.54444e-014
rhumerus -20.2545 -9.93115 -81.8248
rradius 24.9854
rwrist 5.39386
rhand -19.7897 30.7742
rfingers 7.12502
rthumb 6.54287 0.895295
lclavicle -3.65267e-014 2.54444e-014
lhumerus -54.6058 48.3331 45.1519
lradius 11.277
lwrist -28.3998
lhand -9.72974 39.2315
lfingers 7.12502
lthumb 16.2439 68.571
rfemur 6.80461 12.5576 27.1772
rtibia 3.74721
rfoot -15.8795 -0.669975
rtoes 2.59242
lfemur -36.3944 -2.99079 -20.0083
ltibia 31.7127
lfoot -19.4203 -12.9885
ltoes -2.09807
200
root -15.7155 16.0673 2.54188 -168.689 75.1362 -175.993
lowerback -1.51642 -0.98296 -3.66734
upperback 4.10064 -1.19073 2.15973
thorax 5.23083 -0.763327 4.23703
lowerneck -9.96398 -6.74014 1.21164
upperneck 36.0337 -10.5287 5.93513
head 14.3416 -2.98037 0.800404
rclavicle 3.11098e-014 -6.16232e-015
rhumerus -20.2164 -9.60851 -81.8387
rradius 25.0948
rwrist 5.17139
rhand -20.4519 30.2145
rfingers 7.12502
rthumb 5.90356 0.316767
lclavicle 3.11098e-014 -6.16232e-015
lhumerus -56.3975 49.1243 43.0833
lradius 11.2924
lwrist -29.5517
lhand -10.1852 38.7293
lfingers 7.12502
lthumb 15.8053 68.1041
rfemur 8.50341 12.9979 26.9799
rtibia -2.38542e-014
rfoot -14.6414 0.223264
rtoes -0.71128
lfemur -36.9427 -3.4795 -19.6856
ltibia 30.4603
lfoot -19.1258 -12.3238
ltoes -1.64722
